<mxfile host="app.diagrams.net" agent="Mozilla/5.0 (Windows NT 10.0; Win64; x64) AppleWebKit/537.36 (KHTML, like Gecko) Chrome/129.0.0.0 Safari/537.36 Edg/129.0.0.0" version="24.7.17">
  <diagram name="第 1 页" id="yeCsUwUNK84ta9MXK2Qf">
    <mxGraphModel dx="1119" dy="613" grid="1" gridSize="10" guides="1" tooltips="1" connect="1" arrows="1" fold="1" page="1" pageScale="1" pageWidth="827" pageHeight="1169" math="0" shadow="0">
      <root>
        <mxCell id="0" />
        <mxCell id="1" parent="0" />
        <mxCell id="Xc3ZNh7bSbBz66OXRRGW-1" value="&lt;b style=&quot;font-size: 16px;&quot;&gt;(1)&lt;/b&gt;" style="text;html=1;align=center;verticalAlign=middle;whiteSpace=wrap;rounded=0;fontFamily=Times New Roman;fontSize=16;" vertex="1" parent="1">
          <mxGeometry x="40" y="160" width="20" height="30" as="geometry" />
        </mxCell>
        <mxCell id="Xc3ZNh7bSbBz66OXRRGW-4" value="&lt;b style=&quot;font-size: 16px;&quot;&gt;(2)&lt;/b&gt;" style="text;html=1;align=center;verticalAlign=middle;whiteSpace=wrap;rounded=0;fontFamily=Times New Roman;fontSize=16;" vertex="1" parent="1">
          <mxGeometry x="351" y="160" width="23" height="30" as="geometry" />
        </mxCell>
        <mxCell id="Xc3ZNh7bSbBz66OXRRGW-11" value="&lt;font style=&quot;font-size: 16px;&quot; face=&quot;Times New Roman&quot;&gt;&lt;b style=&quot;font-size: 16px;&quot;&gt;Best Fit&lt;/b&gt;&lt;/font&gt;" style="text;html=1;align=center;verticalAlign=middle;whiteSpace=wrap;rounded=0;fontSize=16;" vertex="1" parent="1">
          <mxGeometry x="55" y="165" width="85" height="20" as="geometry" />
        </mxCell>
        <mxCell id="Xc3ZNh7bSbBz66OXRRGW-12" value="&lt;font face=&quot;Times New Roman&quot;&gt;&lt;b&gt;Direct Host Access&lt;/b&gt;&lt;/font&gt;" style="text;html=1;align=center;verticalAlign=middle;whiteSpace=wrap;rounded=0;fontSize=16;" vertex="1" parent="1">
          <mxGeometry x="363" y="165" width="167" height="20" as="geometry" />
        </mxCell>
        <mxCell id="Xc3ZNh7bSbBz66OXRRGW-13" value="&lt;b&gt;&lt;font style=&quot;font-size: 16px;&quot;&gt;(3)&lt;/font&gt;&lt;/b&gt;" style="text;html=1;align=center;verticalAlign=middle;whiteSpace=wrap;rounded=0;fontFamily=Times New Roman;" vertex="1" parent="1">
          <mxGeometry x="766.5" y="160" width="23" height="30" as="geometry" />
        </mxCell>
        <mxCell id="Xc3ZNh7bSbBz66OXRRGW-14" value="&lt;font size=&quot;1&quot; face=&quot;Times New Roman&quot;&gt;&lt;b style=&quot;font-size: 16px;&quot;&gt;Direct Persist&lt;/b&gt;&lt;/font&gt;" style="text;html=1;align=center;verticalAlign=middle;whiteSpace=wrap;rounded=0;" vertex="1" parent="1">
          <mxGeometry x="784.5" y="165" width="115.5" height="20" as="geometry" />
        </mxCell>
      </root>
    </mxGraphModel>
  </diagram>
</mxfile>
